<svg id="emoji_events_black_24dp" xmlns="http://www.w3.org/2000/svg" width="73.59" height="70.04" viewBox="0 0 73.59 70.04">
  <rect id="Rectangle_16" data-name="Rectangle 16" width="73.59" height="70.04" fill="none"/>
  <path id="Path_65" data-name="Path 65" d="M63.08,10.116H55.57V3H18.02v7.116H10.51A7.342,7.342,0,0,0,3,17.231v3.558c0,9.072,7.21,16.473,16.484,17.575A18.611,18.611,0,0,0,33.04,48.9V59.924H18.02V67.04H55.57V59.924H40.55V48.9A18.611,18.611,0,0,0,54.106,38.364c9.275-1.1,16.484-8.5,16.484-17.575V17.231A7.342,7.342,0,0,0,63.08,10.116ZM10.51,20.789V17.231h7.51V30.822A10.767,10.767,0,0,1,10.51,20.789Zm52.57,0a10.767,10.767,0,0,1-7.51,10.033V17.231h7.51Z" transform="translate(0 0)" fill="#e2e2e2"/>
</svg>
