<svg xmlns="http://www.w3.org/2000/svg" width="205" height="214" viewBox="0 0 205 214">
  <g id="Group_14" data-name="Group 14" transform="translate(-63 -3256.292)">
    <g id="Exclusion_1" data-name="Exclusion 1" transform="translate(131 3318.292)" fill="none">
      <path d="M68.5,152a68.845,68.845,0,0,1-13.805-1.4A68.036,68.036,0,0,1,30.2,140.273,68.605,68.605,0,0,1,0,83.334,69.924,69.924,0,0,1,.386,76h0A70.169,70.169,0,0,1,0,68.667,69.339,69.339,0,0,1,1.392,54.828a68.5,68.5,0,0,1,134.217,0A69.619,69.619,0,0,1,136.614,76,68.494,68.494,0,0,0,.386,76h0a68.493,68.493,0,0,0,136.228,0,69.62,69.62,0,0,1-1.006,21.172A68.41,68.41,0,0,1,68.5,152Z" stroke="none"/>
      <path d="M 68.49979400634766 148 C 72.87804412841797 148 77.25234222412109 147.5580902099609 81.50115966796875 146.6865692138672 C 85.64025115966797 145.8374938964844 89.71147918701172 144.5706634521484 93.60175323486328 142.9212493896484 C 97.42250061035156 141.3013000488281 101.108024597168 139.2959594726562 104.5559768676758 136.9609375 C 107.9722518920898 134.6473693847656 111.1849517822266 131.9901580810547 114.1049346923828 129.0631103515625 C 117.0250244140625 126.1359786987305 119.6760025024414 122.9152069091797 121.9842300415039 119.4902267456055 C 123.2863845825195 117.5580978393555 124.4856948852539 115.5517272949219 125.5726699829102 113.4886016845703 C 123.0400161743164 116.7233810424805 120.2214508056641 119.7590713500977 117.1358413696289 122.5581817626953 C 113.9187469482422 125.4765243530273 110.4226837158203 128.1189575195312 106.7447280883789 130.412109375 C 103.0263900756836 132.7304077148438 99.07940673828125 134.7181396484375 95.01338958740234 136.3201141357422 C 90.87218475341797 137.95166015625 86.55490875244141 139.2035064697266 82.18148040771484 140.0409088134766 C 77.70149993896484 140.898681640625 73.09832000732422 141.3336181640625 68.49979400634766 141.3336181640625 C 63.90131759643555 141.3336181640625 59.29818344116211 140.898681640625 54.81820297241211 140.0409088134766 C 50.44483947753906 139.2035217285156 46.12759017944336 137.95166015625 41.98640823364258 136.3200836181641 C 37.92070388793945 134.7182922363281 33.97372817993164 132.7305450439453 30.25513648986816 130.4120941162109 C 26.57727241516113 128.1190032958984 23.08120536804199 125.4765701293945 19.86408996582031 122.5581588745117 C 16.77849197387695 119.7590484619141 13.95993995666504 116.7233657836914 11.42729568481445 113.4885940551758 C 12.51427173614502 115.5517044067383 13.71356868743896 117.5580749511719 15.01572704315186 119.4902267456055 C 17.32399940490723 122.9152069091797 19.97497749328613 126.1360015869141 22.89504623413086 129.0631408691406 C 25.81500053405762 131.9902038574219 29.0277271270752 134.6473846435547 32.44397735595703 136.9609527587891 C 35.89179611206055 139.2959289550781 39.57729721069336 141.3012542724609 43.39809036254883 142.9212493896484 C 47.28836441040039 144.5706787109375 51.35954666137695 145.8375244140625 55.49850082397461 146.6865692138672 C 59.74734115600586 147.5580902099609 64.12161254882812 148 68.49979400634766 148 M 11.42711162567139 38.51205062866211 C 13.95975780487061 35.27726745605469 16.77849197387695 32.24135208129883 19.86408996582031 29.44222640991211 C 23.08120536804199 26.52384185791016 26.57727241516113 23.88140869140625 30.25515937805176 21.58829498291016 C 33.97363662719727 19.26993179321289 37.92058944702148 17.28218269348145 41.98643112182617 15.68029499053955 C 46.12777328491211 14.04870414733887 50.44499969482422 12.7968635559082 54.81820297241211 11.95952320098877 C 59.29811477661133 11.10172748565674 63.90127182006836 10.66679573059082 68.49979400634766 10.66679573059082 C 73.09836578369141 10.66679573059082 77.70156860351562 11.10172748565674 82.18148040771484 11.95952320098877 C 86.55474853515625 12.7968635559082 90.87202453613281 14.04870414733887 95.01341247558594 15.68031787872314 C 99.07940673828125 17.28227233886719 103.0263900756836 19.27000045776367 106.7447509765625 21.58831787109375 C 110.4226837158203 23.88145446777344 113.9187469482422 26.52388572692871 117.1358642578125 29.4422492980957 C 120.2211685180664 32.2410774230957 123.0402908325195 35.27745819091797 125.5727920532227 38.51190948486328 C 124.4858169555664 36.44878768920898 123.2863845825195 34.44219589233398 121.9842071533203 32.51004409790039 C 119.676025390625 29.08511352539062 117.0250473022461 25.86429595947266 114.1048889160156 22.93704605102539 C 111.1849517822266 20.01002311706543 107.9722290039062 17.3527946472168 104.5559539794922 15.03920459747314 C 101.1079788208008 12.70413589477539 97.42245483398438 10.69879531860352 93.60175323486328 9.078841209411621 C 89.71134185791016 7.429340839385986 85.64011383056641 6.162477493286133 81.50120544433594 5.313454627990723 C 77.25229644775391 4.441909313201904 72.87797546386719 4 68.49979400634766 4 C 64.12163543701172 4 59.74738693237305 4.441909313201904 55.4985466003418 5.313454627990723 C 51.35970306396484 6.162454605102539 47.28852462768555 7.429317951202393 43.39811325073242 9.078841209411621 C 39.57733917236328 10.69881820678711 35.89184188842773 12.70418167114258 32.44395446777344 15.03920459747314 C 29.02765846252441 17.35281753540039 25.81495475769043 20.01002311706543 22.89504623413086 22.9370231628418 C 19.97500038146973 25.86420440673828 17.32399940490723 29.08504486083984 15.01574993133545 32.51004409790039 C 13.71354103088379 34.4422721862793 12.51408195495605 36.44894027709961 11.42711162567139 38.51205062866211 M 68.49979400634766 152 C 63.85213470458984 152 59.20745468139648 151.5306396484375 54.69475173950195 150.60498046875 C 50.29659271240234 149.7027740478516 45.97050094604492 148.3566131591797 41.8366813659668 146.6039123535156 C 37.77774810791016 144.8829498291016 33.86293029785156 142.7528839111328 30.20100021362305 140.2729034423828 C 26.57377243041992 137.8164825439453 23.16295433044434 134.9954376220703 20.06318092346191 131.8881378173828 C 16.96338653564453 128.7808227539062 14.1491813659668 125.3616790771484 11.69872760772705 121.7257308959961 C 9.224727630615234 118.0547943115234 7.099818229675293 114.1304550170898 5.383068084716797 110.0617294311523 C 3.634522676467896 105.9176559448242 2.29163646697998 101.5810470581055 1.391636371612549 97.17234039306641 C 0.4682272672653198 92.64861297607422 0 87.99259185791016 0 83.33361053466797 C 0 80.88681793212891 0.1298636347055435 78.41952514648438 0.3860227167606354 76.00020599365234 L 0.3851591050624847 76.00020599365234 C 0.1295909136533737 73.57811737060547 0 71.11079406738281 0 68.66679382324219 C 0 64.00782012939453 0.4682272672653198 59.3517951965332 1.391636371612549 54.82806777954102 C 2.29163646697998 50.41936492919922 3.634522676467896 46.08272552490234 5.383068084716797 41.93859100341797 C 7.099772930145264 37.8698844909668 9.224681854248047 33.9455680847168 11.69872760772705 30.27456855773926 C 14.14915943145752 26.63861274719238 16.96334075927734 23.21945381164551 20.06318092346191 20.11204528808594 C 23.16297721862793 17.00470542907715 26.57381820678711 14.18365955352783 30.20100021362305 11.72722721099854 C 33.86302185058594 9.24718189239502 37.77783966064453 7.117113590240479 41.8366813659668 5.396181583404541 C 45.97063446044922 3.643409013748169 50.29670333862305 2.297227382659912 54.69475173950195 1.395045399665833 C 59.20752334594727 0.4693636298179626 63.85220336914062 0 68.49979400634766 0 C 73.14740753173828 0 77.79213714599609 0.4693636298179626 82.30495452880859 1.395045399665833 C 86.70304870605469 2.297227382659912 91.02913665771484 3.643386363983154 95.16316223144531 5.396181583404541 C 99.22200012207031 7.117090702056885 103.1368179321289 9.247159004211426 106.7989120483398 11.72722721099854 C 110.426025390625 14.18361377716064 113.8369064331055 17.00468254089355 116.9367523193359 20.11204528808594 C 120.0365676879883 23.21940994262695 122.8507919311523 26.63856887817383 125.3012237548828 30.27456855773926 C 127.7752532958984 33.94547653198242 129.9001617431641 37.86981964111328 131.6169128417969 41.93859100341797 C 133.365478515625 46.08272552490234 134.7083892822266 50.41936492919922 135.6083374023438 54.82806777954102 C 136.5317687988281 59.35186386108398 137 64.00788879394531 137 68.66679382324219 C 137 71.11222839355469 136.8702697753906 73.57813262939453 136.6143798828125 75.99600219726562 C 134.8388214111328 59.24224853515625 126.9670715332031 43.76124954223633 114.4483184814453 32.40486526489258 C 111.4078216552734 29.64670372009277 108.1039123535156 27.14949989318848 104.6284561157227 24.98261451721191 C 101.1157760620117 22.79254531860352 97.38747406005859 20.91493225097656 93.54715728759766 19.40188598632812 C 89.63636016845703 17.86113548278809 85.55931854248047 16.67893218994141 81.42927551269531 15.88815879821777 C 77.19667816162109 15.07772731781006 72.84656524658203 14.66679573059082 68.49979400634766 14.66679573059082 C 64.15306854248047 14.66679573059082 59.80300140380859 15.07772731781006 55.57043075561523 15.88815879821777 C 51.44041061401367 16.67893218994141 47.36341094970703 17.86113548278809 43.45263671875 19.40188598632812 C 39.61236190795898 20.91490936279297 35.88411331176758 22.79254531860352 32.37143325805664 24.98261451721191 C 28.89597702026367 27.14949989318848 25.59211349487305 29.64670372009277 22.5516357421875 32.40486526489258 C 10.03206825256348 43.76206970214844 2.160159111022949 59.24452209472656 0.3860227167606354 76.00020599365234 C 2.160136461257935 92.75556945800781 10.0317268371582 108.2380447387695 22.5516357421875 119.5955429077148 C 25.59211349487305 122.3537063598633 28.89597702026367 124.8509063720703 32.37143325805664 127.0177917480469 C 35.88411331176758 129.2078704833984 39.61236190795898 131.0855255126953 43.45263671875 132.5985260009766 C 47.36341094970703 134.1392974853516 51.44041061401367 135.3214721679688 55.57043075561523 136.1122741699219 C 59.80300140380859 136.9226837158203 64.15306854248047 137.3336181640625 68.49979400634766 137.3336181640625 C 72.84656524658203 137.3336181640625 77.19667816162109 136.9226837158203 81.42927551269531 136.1122741699219 C 85.55931854248047 135.3214721679688 89.63636016845703 134.1392974853516 93.54715728759766 132.5985260009766 C 97.38747406005859 131.0854797363281 101.1157760620117 129.2078704833984 104.6284561157227 127.0177917480469 C 108.1039123535156 124.8509063720703 111.4078216552734 122.3537063598633 114.4483184814453 119.5955429077148 C 126.9679107666016 108.2383880615234 134.8398132324219 92.75592803955078 136.6139526367188 76.00020599365234 C 136.8704071044922 78.42234039306641 137 80.88965606689453 137 83.33361053466797 C 137 87.99254608154297 136.5317687988281 92.64856719970703 135.6083374023438 97.17234039306641 C 134.7083892822266 101.5810470581055 133.365478515625 105.9176559448242 131.6169128417969 110.0617294311523 C 129.9001159667969 114.1305465698242 127.7752075195312 118.0548629760742 125.3012237548828 121.7257308959961 C 122.8507919311523 125.3617248535156 120.0365676879883 128.7808685302734 116.9367523193359 131.8881378173828 C 113.8369522094727 134.9954528808594 110.4260711669922 137.8165283203125 106.7989120483398 140.2729034423828 C 103.1368179321289 142.7529602050781 99.22200012207031 144.8829956054688 95.16316223144531 146.6039123535156 C 91.02922821044922 148.3566436767578 86.70309448242188 149.7027740478516 82.30495452880859 150.60498046875 C 77.79222869873047 151.5306396484375 73.14749908447266 152 68.49979400634766 152 Z" stroke="none" fill="#fcbf49"/>
    </g>
    <g id="Exclusion_2" data-name="Exclusion 2" transform="translate(63 3256.292)" fill="none">
      <path d="M68.5,152a68.845,68.845,0,0,1-13.805-1.4A68.036,68.036,0,0,1,30.2,140.273,68.605,68.605,0,0,1,0,83.334,69.924,69.924,0,0,1,.386,76h0A70.169,70.169,0,0,1,0,68.667,69.339,69.339,0,0,1,1.392,54.828a68.5,68.5,0,0,1,134.217,0A69.619,69.619,0,0,1,136.614,76,68.494,68.494,0,0,0,.386,76h0a68.493,68.493,0,0,0,136.228,0,69.62,69.62,0,0,1-1.006,21.172A68.41,68.41,0,0,1,68.5,152Z" stroke="none"/>
      <path d="M 68.49979400634766 148 C 72.87804412841797 148 77.25234222412109 147.5580902099609 81.50115966796875 146.6865692138672 C 85.64025115966797 145.8374938964844 89.71147918701172 144.5706634521484 93.60175323486328 142.9212493896484 C 97.42250061035156 141.3013000488281 101.108024597168 139.2959594726562 104.5559768676758 136.9609375 C 107.9722518920898 134.6473693847656 111.1849517822266 131.9901580810547 114.1049346923828 129.0631103515625 C 117.0250244140625 126.1359786987305 119.6760025024414 122.9152069091797 121.9842300415039 119.4902267456055 C 123.2863845825195 117.5580978393555 124.4856948852539 115.5517272949219 125.5726699829102 113.4886016845703 C 123.0400161743164 116.7233810424805 120.2214508056641 119.7590713500977 117.1358413696289 122.5581817626953 C 113.9187469482422 125.4765243530273 110.4226837158203 128.1189575195312 106.7447280883789 130.412109375 C 103.0263900756836 132.7304077148438 99.07940673828125 134.7181396484375 95.01338958740234 136.3201141357422 C 90.87218475341797 137.95166015625 86.55490875244141 139.2035064697266 82.18148040771484 140.0409088134766 C 77.70149993896484 140.898681640625 73.09832000732422 141.3336181640625 68.49979400634766 141.3336181640625 C 63.90131759643555 141.3336181640625 59.29818344116211 140.898681640625 54.81820297241211 140.0409088134766 C 50.44483947753906 139.2035217285156 46.12759017944336 137.95166015625 41.98640823364258 136.3200836181641 C 37.92070388793945 134.7182922363281 33.97372817993164 132.7305450439453 30.25513648986816 130.4120941162109 C 26.57727241516113 128.1190032958984 23.08120536804199 125.4765701293945 19.86408996582031 122.5581588745117 C 16.77849197387695 119.7590484619141 13.95993995666504 116.7233657836914 11.42729568481445 113.4885940551758 C 12.51427173614502 115.5517044067383 13.71356868743896 117.5580749511719 15.01572704315186 119.4902267456055 C 17.32399940490723 122.9152069091797 19.97497749328613 126.1360015869141 22.89504623413086 129.0631408691406 C 25.81500053405762 131.9902038574219 29.0277271270752 134.6473846435547 32.44397735595703 136.9609527587891 C 35.89179611206055 139.2959289550781 39.57729721069336 141.3012542724609 43.39809036254883 142.9212493896484 C 47.28836441040039 144.5706787109375 51.35954666137695 145.8375244140625 55.49850082397461 146.6865692138672 C 59.74734115600586 147.5580902099609 64.12161254882812 148 68.49979400634766 148 M 11.42711162567139 38.51205062866211 C 13.95975780487061 35.27726745605469 16.77849197387695 32.24135208129883 19.86408996582031 29.44222640991211 C 23.08120536804199 26.52384185791016 26.57727241516113 23.88140869140625 30.25515937805176 21.58829498291016 C 33.97363662719727 19.26993179321289 37.92058944702148 17.28218269348145 41.98643112182617 15.68029499053955 C 46.12777328491211 14.04870414733887 50.44499969482422 12.7968635559082 54.81820297241211 11.95952320098877 C 59.29811477661133 11.10172748565674 63.90127182006836 10.66679573059082 68.49979400634766 10.66679573059082 C 73.09836578369141 10.66679573059082 77.70156860351562 11.10172748565674 82.18148040771484 11.95952320098877 C 86.55474853515625 12.7968635559082 90.87202453613281 14.04870414733887 95.01341247558594 15.68031787872314 C 99.07940673828125 17.28227233886719 103.0263900756836 19.27000045776367 106.7447509765625 21.58831787109375 C 110.4226837158203 23.88145446777344 113.9187469482422 26.52388572692871 117.1358642578125 29.4422492980957 C 120.2211685180664 32.2410774230957 123.0402908325195 35.27745819091797 125.5727920532227 38.51190948486328 C 124.4858169555664 36.44878768920898 123.2863845825195 34.44219589233398 121.9842071533203 32.51004409790039 C 119.676025390625 29.08511352539062 117.0250473022461 25.86429595947266 114.1048889160156 22.93704605102539 C 111.1849517822266 20.01002311706543 107.9722290039062 17.3527946472168 104.5559539794922 15.03920459747314 C 101.1079788208008 12.70413589477539 97.42245483398438 10.69879531860352 93.60175323486328 9.078841209411621 C 89.71134185791016 7.429340839385986 85.64011383056641 6.162477493286133 81.50120544433594 5.313454627990723 C 77.25229644775391 4.441909313201904 72.87797546386719 4 68.49979400634766 4 C 64.12163543701172 4 59.74738693237305 4.441909313201904 55.4985466003418 5.313454627990723 C 51.35970306396484 6.162454605102539 47.28852462768555 7.429317951202393 43.39811325073242 9.078841209411621 C 39.57733917236328 10.69881820678711 35.89184188842773 12.70418167114258 32.44395446777344 15.03920459747314 C 29.02765846252441 17.35281753540039 25.81495475769043 20.01002311706543 22.89504623413086 22.9370231628418 C 19.97500038146973 25.86420440673828 17.32399940490723 29.08504486083984 15.01574993133545 32.51004409790039 C 13.71354103088379 34.4422721862793 12.51408195495605 36.44894027709961 11.42711162567139 38.51205062866211 M 68.49979400634766 152 C 63.85213470458984 152 59.20745468139648 151.5306396484375 54.69475173950195 150.60498046875 C 50.29659271240234 149.7027740478516 45.97050094604492 148.3566131591797 41.8366813659668 146.6039123535156 C 37.77774810791016 144.8829498291016 33.86293029785156 142.7528839111328 30.20100021362305 140.2729034423828 C 26.57377243041992 137.8164825439453 23.16295433044434 134.9954376220703 20.06318092346191 131.8881378173828 C 16.96338653564453 128.7808227539062 14.1491813659668 125.3616790771484 11.69872760772705 121.7257308959961 C 9.224727630615234 118.0547943115234 7.099818229675293 114.1304550170898 5.383068084716797 110.0617294311523 C 3.634522676467896 105.9176559448242 2.29163646697998 101.5810470581055 1.391636371612549 97.17234039306641 C 0.4682272672653198 92.64861297607422 0 87.99259185791016 0 83.33361053466797 C 0 80.88681793212891 0.1298636347055435 78.41952514648438 0.3860227167606354 76.00020599365234 L 0.3851591050624847 76.00020599365234 C 0.1295909136533737 73.57811737060547 0 71.11079406738281 0 68.66679382324219 C 0 64.00782012939453 0.4682272672653198 59.3517951965332 1.391636371612549 54.82806777954102 C 2.29163646697998 50.41936492919922 3.634522676467896 46.08272552490234 5.383068084716797 41.93859100341797 C 7.099772930145264 37.8698844909668 9.224681854248047 33.9455680847168 11.69872760772705 30.27456855773926 C 14.14915943145752 26.63861274719238 16.96334075927734 23.21945381164551 20.06318092346191 20.11204528808594 C 23.16297721862793 17.00470542907715 26.57381820678711 14.18365955352783 30.20100021362305 11.72722721099854 C 33.86302185058594 9.24718189239502 37.77783966064453 7.117113590240479 41.8366813659668 5.396181583404541 C 45.97063446044922 3.643409013748169 50.29670333862305 2.297227382659912 54.69475173950195 1.395045399665833 C 59.20752334594727 0.4693636298179626 63.85220336914062 0 68.49979400634766 0 C 73.14740753173828 0 77.79213714599609 0.4693636298179626 82.30495452880859 1.395045399665833 C 86.70304870605469 2.297227382659912 91.02913665771484 3.643386363983154 95.16316223144531 5.396181583404541 C 99.22200012207031 7.117090702056885 103.1368179321289 9.247159004211426 106.7989120483398 11.72722721099854 C 110.426025390625 14.18361377716064 113.8369064331055 17.00468254089355 116.9367523193359 20.11204528808594 C 120.0365676879883 23.21940994262695 122.8507919311523 26.63856887817383 125.3012237548828 30.27456855773926 C 127.7752532958984 33.94547653198242 129.9001617431641 37.86981964111328 131.6169128417969 41.93859100341797 C 133.365478515625 46.08272552490234 134.7083892822266 50.41936492919922 135.6083374023438 54.82806777954102 C 136.5317687988281 59.35186386108398 137 64.00788879394531 137 68.66679382324219 C 137 71.11222839355469 136.8702697753906 73.57813262939453 136.6143798828125 75.99600219726562 C 134.8388214111328 59.24224853515625 126.9670715332031 43.76124954223633 114.4483184814453 32.40486526489258 C 111.4078216552734 29.64670372009277 108.1039123535156 27.14949989318848 104.6284561157227 24.98261451721191 C 101.1157760620117 22.79254531860352 97.38747406005859 20.91493225097656 93.54715728759766 19.40188598632812 C 89.63636016845703 17.86113548278809 85.55931854248047 16.67893218994141 81.42927551269531 15.88815879821777 C 77.19667816162109 15.07772731781006 72.84656524658203 14.66679573059082 68.49979400634766 14.66679573059082 C 64.15306854248047 14.66679573059082 59.80300140380859 15.07772731781006 55.57043075561523 15.88815879821777 C 51.44041061401367 16.67893218994141 47.36341094970703 17.86113548278809 43.45263671875 19.40188598632812 C 39.61236190795898 20.91490936279297 35.88411331176758 22.79254531860352 32.37143325805664 24.98261451721191 C 28.89597702026367 27.14949989318848 25.59211349487305 29.64670372009277 22.5516357421875 32.40486526489258 C 10.03206825256348 43.76206970214844 2.160159111022949 59.24452209472656 0.3860227167606354 76.00020599365234 C 2.160136461257935 92.75556945800781 10.0317268371582 108.2380447387695 22.5516357421875 119.5955429077148 C 25.59211349487305 122.3537063598633 28.89597702026367 124.8509063720703 32.37143325805664 127.0177917480469 C 35.88411331176758 129.2078704833984 39.61236190795898 131.0855255126953 43.45263671875 132.5985260009766 C 47.36341094970703 134.1392974853516 51.44041061401367 135.3214721679688 55.57043075561523 136.1122741699219 C 59.80300140380859 136.9226837158203 64.15306854248047 137.3336181640625 68.49979400634766 137.3336181640625 C 72.84656524658203 137.3336181640625 77.19667816162109 136.9226837158203 81.42927551269531 136.1122741699219 C 85.55931854248047 135.3214721679688 89.63636016845703 134.1392974853516 93.54715728759766 132.5985260009766 C 97.38747406005859 131.0854797363281 101.1157760620117 129.2078704833984 104.6284561157227 127.0177917480469 C 108.1039123535156 124.8509063720703 111.4078216552734 122.3537063598633 114.4483184814453 119.5955429077148 C 126.9679107666016 108.2383880615234 134.8398132324219 92.75592803955078 136.6139526367188 76.00020599365234 C 136.8704071044922 78.42234039306641 137 80.88965606689453 137 83.33361053466797 C 137 87.99254608154297 136.5317687988281 92.64856719970703 135.6083374023438 97.17234039306641 C 134.7083892822266 101.5810470581055 133.365478515625 105.9176559448242 131.6169128417969 110.0617294311523 C 129.9001159667969 114.1305465698242 127.7752075195312 118.0548629760742 125.3012237548828 121.7257308959961 C 122.8507919311523 125.3617248535156 120.0365676879883 128.7808685302734 116.9367523193359 131.8881378173828 C 113.8369522094727 134.9954528808594 110.4260711669922 137.8165283203125 106.7989120483398 140.2729034423828 C 103.1368179321289 142.7529602050781 99.22200012207031 144.8829956054688 95.16316223144531 146.6039123535156 C 91.02922821044922 148.3566436767578 86.70309448242188 149.7027740478516 82.30495452880859 150.60498046875 C 77.79222869873047 151.5306396484375 73.14749908447266 152 68.49979400634766 152 Z" stroke="none" fill="#fcbf49"/>
    </g>
  </g>
</svg>
