<svg id="_394189_code_github_repository_icon" data-name="394189_code_github_repository_icon" xmlns="http://www.w3.org/2000/svg" width="73.59" height="70.04" viewBox="0 0 73.59 70.04">
  <path id="Path_22" data-name="Path 22" d="M-1085.943,1701.358a.347.347,0,0,0,.048,0,.268.268,0,0,0,.248-.241.3.3,0,0,0-.2-.343c-3.461-.739-5.992-1.556-14.533-1.474a39.5,39.5,0,0,0,.877-8.182c-.014-8.671-3.594-11.738-4.282-13.179,1.014-6.565-.169-9.553-.718-10.578-2.029-.837-7.057,2.152-9.8,4.258-4.479-1.519-13.946-1.372-17.5.392-6.551-5.438-10.016-4.605-10.016-4.605a18.311,18.311,0,0,0-.591,11.464c-2.156,3.185-3.761,5.438-3.761,11.412a32.169,32.169,0,0,0,1.113,9.006c-3.428-.01-10.613.525-13.979,1.489a.3.3,0,0,0-.186.357.266.266,0,0,0,.247.223.194.194,0,0,0,.061-.008c3.4-.973,10.821-1.5,14.04-1.471q.276.85.619,1.646c-8.274.255-10.5,1.624-13.979,2.63-.251.074-.5.145-.739.214a.3.3,0,0,0-.186.356.264.264,0,0,0,.247.223.207.207,0,0,0,.061-.008l.74-.215c3.484-1.009,5.745-2.387,14.12-2.62,2.461,5.182,7.208,8.405,15.213,9.3a8.18,8.18,0,0,0-2.7,5.121,7.723,7.723,0,0,1-6.573.611c-3.147-1.152-4.352-8.377-9.065-7.349-1.021.223-.818,1,.064,1.666a10.458,10.458,0,0,1,3.832,5.3c.8,2.2,2.485,6.144,7.81,6.144a20.361,20.361,0,0,0,3.594-.294s.041,5.626.041,7.813c0,2.522-2.936,3.234-2.936,4.447,0,.48.972.525,1.753.525,1.543,0,4.755-1.494,4.755-4.115,0-2.083.029-9.087.029-10.312,0-2.678,1.239-3.528,1.239-3.528s.154,14.3-.3,16.216c-.527,2.254-1.479,1.934-1.479,2.94,0,1.495,3.866.366,5.147-2.916.991-2.555.558-16.583.558-16.583l1.057-.026s.059,6.422.024,9.357c-.037,3.04-.214,6.885,1.342,8.7,1.023,1.192,4.339,3.282,4.339,1.372,0-1.111-1.817-2.024-1.817-5.031v-13.832c1.45,0,1.232,4.549,1.232,4.549l.106,8.45a4.383,4.383,0,0,0,2.872,4.369c1.126.456,3.536.58,3.649-.186s-2.9-1.911-2.93-4.3c-.017-1.454.056-2.3.056-8.622s-.732-8.656-3.283-10.518c7.872-.938,12.744-3.2,15.119-9.244a50.2,50.2,0,0,1,15.081,2.781.205.205,0,0,0,.074.014.262.262,0,0,0,.242-.208.305.305,0,0,0-.169-.369,49.951,49.951,0,0,0-15.011-2.8q.276-.788.5-1.654C-1091.938,1699.8-1089.4,1700.618-1085.943,1701.358Zm-59.639,9.614a.519.519,0,0,1-.571-.441.519.519,0,0,1,.571-.441.519.519,0,0,1,.57.441A.518.518,0,0,1-1145.582,1710.972Zm1.775,1.118a.518.518,0,0,1-.571-.441.519.519,0,0,1,.571-.441.519.519,0,0,1,.571.441A.518.518,0,0,1-1143.808,1712.091Zm.514,1.054a.519.519,0,0,1,.57-.441.519.519,0,0,1,.571.441.518.518,0,0,1-.571.441A.518.518,0,0,1-1143.294,1713.145Zm1.522,2.131a.519.519,0,0,1-.571-.441.518.518,0,0,1,.571-.441.518.518,0,0,1,.57.441A.519.519,0,0,1-1141.772,1715.276Zm1.084,1.592a.519.519,0,0,1-.571-.441.519.519,0,0,1,.571-.441.519.519,0,0,1,.57.441A.519.519,0,0,1-1140.687,1716.868Zm1.465,1.356a.519.519,0,0,1-.57-.441.518.518,0,0,1,.57-.441.519.519,0,0,1,.571.441A.519.519,0,0,1-1139.223,1718.224Zm2.05.882a.519.519,0,0,1-.57-.441.518.518,0,0,1,.57-.441.518.518,0,0,1,.57.441A.519.519,0,0,1-1137.173,1719.106Zm2.057,0a.519.519,0,0,1-.571-.441.518.518,0,0,1,.571-.441.518.518,0,0,1,.57.441A.519.519,0,0,1-1135.116,1719.106Zm2.064-.376a.519.519,0,0,1-.571-.44.518.518,0,0,1,.571-.441.518.518,0,0,1,.571.441A.519.519,0,0,1-1133.052,1718.729Zm16.158-9.386c-1.7.066-3.467.1-5.244.1-1.8,0-3.528-.034-5.149-.1-8.649-.352-13.412-4.583-13.412-11.915a10.557,10.557,0,0,1,1.928-5.925,9.054,9.054,0,0,1,7.706-3.7c.225,0,.627.028,1.445.087,1.751.126,4.682.338,7.584.338,2.628,0,5.286-.225,6.714-.346.669-.057.937-.079,1.11-.079,7.025,0,9.528,5.2,9.528,10.073C-1104.684,1702.9-1106.8,1708.96-1116.894,1709.343Z" transform="translate(1159.233 -1667.222)" fill="#e2e2e2"/>
  <path id="Path_23" data-name="Path 23" d="M-1151.061,1696.668c1.361,0,.023-2.448,0-3.593C-1151.067,1694.19-1152.422,1696.668-1151.061,1696.668Z" transform="translate(1162.993 -1648.206)" fill="#e2e2e2"/>
  <path id="Path_24" data-name="Path 24" d="M-1132.216,1689.076a.276.276,0,0,0-.253.294,1.517,1.517,0,0,1-1.535,1.372,1.484,1.484,0,0,1-.365-.046,1.89,1.89,0,0,1-.76-.406c-.042-.036-.082-.073-.121-.111a2.275,2.275,0,0,1-.288-.345.994.994,0,0,1-.2-.465.276.276,0,0,0-.254-.294.276.276,0,0,0-.254.294,1.023,1.023,0,0,0,.043.276,1.961,1.961,0,0,0,.216.475,2.738,2.738,0,0,0,.376.48,2.658,2.658,0,0,0,.513.409,2.165,2.165,0,0,0,.8.3,1.97,1.97,0,0,0,.3.023,2.021,2.021,0,0,0,1.331-.5c.049-.043.1-.088.142-.135a2.118,2.118,0,0,0,.241-.3,1.943,1.943,0,0,0,.319-.853,1.623,1.623,0,0,0,.01-.175A.276.276,0,0,0-1132.216,1689.076Z" transform="translate(1170.658 -1651.147)" fill="#e2e2e2"/>
  <path id="Path_25" data-name="Path 25" d="M-1135.2,1688.839a.96.96,0,0,0,.236.273.848.848,0,0,0,.11.073.78.78,0,0,0,.246.088.735.735,0,0,0,.133.012.789.789,0,0,0,.488-.173.9.9,0,0,0,.158-.159,1.045,1.045,0,0,0,.152-.288,1.134,1.134,0,0,0,.075-.392.951.951,0,0,0-.873-1.012.816.816,0,0,0-.618.3c-.007.008-.012.018-.018.026a1,1,0,0,0-.117.184,1.1,1.1,0,0,0-.1.3,1.211,1.211,0,0,0-.018.2,1.213,1.213,0,0,0,.018.2A1.1,1.1,0,0,0-1135.2,1688.839Z" transform="translate(1171.102 -1652.483)" fill="#e2e2e2"/>
  <path id="Path_26" data-name="Path 26" d="M-1137.6,1682.657a4.362,4.362,0,0,0-.577-.674,3.122,3.122,0,0,0-.649-.474,2.336,2.336,0,0,0-.707-.248,2.114,2.114,0,0,0-.37-.032c-2,0-3.621,2.8-3.621,6.255s1.621,5.863,3.621,5.863a2.469,2.469,0,0,0,.37-.027,2.566,2.566,0,0,0,.707-.217,3.014,3.014,0,0,0,.649-.419,3.907,3.907,0,0,0,.577-.6,5.069,5.069,0,0,0,.491-.775,8.365,8.365,0,0,0,.827-3.819,9.36,9.36,0,0,0-.827-3.979A5.912,5.912,0,0,0-1137.6,1682.657Z" transform="translate(1167.039 -1656.919)" fill="#e2e2e2"/>
  <path id="Path_27" data-name="Path 27" d="M-1126.837,1681.229c-2,0-3.62,2.8-3.62,6.255s1.621,5.863,3.62,5.863,3.62-2.408,3.62-5.863S-1124.838,1681.229-1126.837,1681.229Z" transform="translate(1173.534 -1656.919)" fill="#e2e2e2"/>
</svg>
