<svg xmlns="http://www.w3.org/2000/svg" width="1922.915" height="433.857" viewBox="0 0 1922.915 433.857">
  <g id="Group_9" data-name="Group 9" transform="translate(-2645.554 -911.772)">
    <g id="Group_45" data-name="Group 45">
      <path id="Path_66" data-name="Path 66" d="M2.2,37.02S45.816-168.839,361.223-5.054C641.1,119.317,502.274-93.845,636.1-81.882c539.835,105.121,315.576-141.387,409.681-136.3,237.306,36.046,139.178,352.347,383.727,82.95s488.9-222.7,488.9-222.7" transform="translate(2649.599 1308.091)" fill="none" stroke="#fcbf49" stroke-width="5"/>
      <path id="Path_67" data-name="Path 67" d="M2.2,37.81S45.9-168.457,361.936-4.348C642.37,120.27,503.267-93.315,637.356-81.328,1178.262,24,929.006-256.281,1023.3-251.187c256.925,13.878,164.007,386.331,409.041,116.4S1922.2-357.927,1922.2-357.927" transform="translate(2645.796 1275.301)" fill="none" stroke="#fcbf49" stroke-width="5"/>
    </g>
  </g>
</svg>
