<svg xmlns="http://www.w3.org/2000/svg" width="738" height="85" viewBox="0 0 738 85">
  <g id="Group_29" data-name="Group 29" transform="translate(-591 -1537)">
    <text id="Skills" transform="translate(591 1589)" fill="#e2e2e2" font-size="37" font-family="NewAthenaUnicode, New Athena Unicode" letter-spacing="0.03em"><tspan x="0" y="0">Skills</tspan></text>
    <g id="Group_18" data-name="Group 18" transform="translate(733.912 1548.266)">
      <g id="_104494_html5_html_icon" data-name="104494_html5_html_icon" transform="translate(319.291)">
        <path id="Path_75" data-name="Path 75" d="M16.718,10.519h2.357V13.1h2.578V5.391H19.074V7.938H16.718V5.391H14.141V13.1h2.577Z" transform="translate(-10.428 -5.391)" fill="#e2e2e2"/>
        <path id="Path_76" data-name="Path 76" d="M23.828,13.1H26.4V7.949h2.267V5.391H21.561V7.949h2.267Z" transform="translate(-9.217 -5.391)" fill="#e2e2e2"/>
        <path id="Path_77" data-name="Path 77" d="M31.166,9.281l1.775,2.739h.043l1.772-2.739V13.1h2.567V5.391H34.635L32.984,8.1,31.332,5.391H28.646V13.1h2.52Z" transform="translate(-8.06 -5.391)" fill="#e2e2e2"/>
        <path id="Path_78" data-name="Path 78" d="M43.407,10.553H39.784V5.391H37.207V13.1h6.2Z" transform="translate(-6.663 -5.391)" fill="#e2e2e2"/>
        <path id="Path_79" data-name="Path 79" d="M10.949,14.926l3.685,41.332,16.542,4.591L47.731,56.26l3.692-41.334H10.949Zm32.48,13.517h-19.4l.463,5.191H42.968L41.578,49.2,31.186,52.081l-.007,0L20.793,49.2l-.725-8.143h5.088l.377,4.224,5.646,1.526.007,0h0l5.652-1.526.589-6.575H19.858l-1.369-15.33H43.881Z" transform="translate(-10.949 -3.835)" fill="#e2e2e2"/>
      </g>
      <g id="Layer_1" transform="translate(0 7.967)">
        <g id="Group_16" data-name="Group 16" transform="translate(0 0)">
          <path id="Path_80" data-name="Path 80" d="M16.387,67.644H27.451V96.317c0,12.923-6.7,17.433-17.4,17.433A31.226,31.226,0,0,1,1.9,112.673l1.238-8.279a19.617,19.617,0,0,0,5.678.808c4.659,0,7.571-1.952,7.571-8.952Z" transform="translate(-1.901 -66.843)" fill="#e2e2e2"/>
          <path id="Path_81" data-name="Path 81" d="M254.566,97.2a29.837,29.837,0,0,0,12.3,2.831c5.1,0,7.789-1.954,7.789-4.987,0-2.763-2.329-4.448-8.226-6.335-8.153-2.7-13.539-6.874-13.539-13.546,0-7.75,7.061-13.614,18.562-13.614a30.673,30.673,0,0,1,12.521,2.291L281.5,72.063a24.45,24.45,0,0,0-10.191-2.157c-4.8,0-7.134,2.089-7.134,4.381,0,2.9,2.693,4.178,9.1,6.47,8.662,2.965,12.666,7.144,12.666,13.614,0,7.615-6.26,14.085-19.727,14.085a34.136,34.136,0,0,1-13.9-2.831Z" transform="translate(-219.409 -61.55)" fill="#e2e2e2"/>
        </g>
      </g>
      <path id="_4691205_redux_icon" data-name="4691205_redux_icon" d="M36.509,35.484a3.653,3.653,0,0,0,3.29-3.85,3.79,3.79,0,0,0-3.749-3.617h-.134A3.753,3.753,0,0,0,32.3,31.9a4.007,4.007,0,0,0,1.084,2.531c-2.3,4.473-5.753,7.762-10.984,10.525A18.008,18.008,0,0,1,11.548,47a9.461,9.461,0,0,1-6.84-3.947,9.808,9.808,0,0,1-.56-10.391,15.509,15.509,0,0,1,4.607-5.362,21.862,21.862,0,0,1-.922-3.385C-1.9,30.884-.913,40.419,2.045,44.925c2.2,3.288,6.71,5.391,11.642,5.391a17.082,17.082,0,0,0,4.045-.426A25.732,25.732,0,0,0,36.479,35.553Zm11.739-8.223c-5.095-5.986-12.6-9.274-21.147-9.274H25.982A3.539,3.539,0,0,0,22.7,16.015h-.1a3.681,3.681,0,0,0-3.615,3.848,3.79,3.79,0,0,0,3.749,3.617h.162a3.711,3.711,0,0,0,3.288-2.3H27.4A25.47,25.47,0,0,1,41.641,25.55a18.028,18.028,0,0,1,7.1,8.552,9.081,9.081,0,0,1-.1,7.9,9.776,9.776,0,0,1-9.208,5.525,17.168,17.168,0,0,1-6.513-1.414c-.788.654-2.105,1.741-3.06,2.4a21.116,21.116,0,0,0,8.648,2.07c6.414,0,11.179-3.615,12.99-7.1,1.971-3.947,1.809-10.589-3.224-16.278l-.031.066Zm-34,9.4a3.785,3.785,0,0,0,3.749,3.617h.132a3.749,3.749,0,0,0-.1-7.5h-.134a1.415,1.415,0,0,0-.494.064,24.564,24.564,0,0,1-3.451-14.862A17.853,17.853,0,0,1,17.893,7.595c1.973-2.467,5.689-3.685,8.223-3.749,7.1-.134,10.064,8.716,10.292,12.235l3.288.986C38.939,6.28,32.233.621,25.82.621,19.8.621,14.245,5,12.006,11.41c-3.058,8.552-1.051,16.772,2.7,23.351A2.909,2.909,0,0,0,14.245,36.665Z" transform="translate(173.193 7.346)" fill="#e2e2e2"/>
      <path id="_8546968_react_icon" data-name="8546968_react_icon" d="M47.782,48.6q-.925-.308-1.851-.583c.1-.423.194-.845.286-1.268,1.405-6.81.48-12.282-2.639-14.088-3-1.725-7.906.069-12.865,4.387-.491.423-.971.868-1.428,1.314-.308-.3-.628-.594-.948-.88-5.2-4.616-10.409-6.558-13.528-4.742-2.993,1.737-3.885,6.89-2.628,13.334.126.64.263,1.268.423,1.908-.731.206-1.451.434-2.125.674C4.376,50.772,0,54.108,0,57.559,0,61.123,4.662,64.7,11,66.87c.514.171,1.028.343,1.554.491-.171.686-.32,1.36-.457,2.057-1.2,6.341-.263,11.368,2.731,13.094,3.085,1.782,8.272-.046,13.322-4.467.4-.354.8-.72,1.2-1.108.5.491,1.028.96,1.554,1.417,4.89,4.2,9.723,5.907,12.705,4.182C46.7,80.752,47.7,75.348,46.4,68.767q-.154-.754-.343-1.542c.366-.1.72-.217,1.074-.331C53.723,64.711,58.5,61.18,58.5,57.559,58.5,54.1,54,50.737,47.782,48.6ZM32.323,38.9c4.25-3.7,8.215-5.153,10.02-4.113,1.931,1.108,2.674,5.587,1.462,11.471-.08.388-.16.766-.263,1.143a58.49,58.49,0,0,0-7.689-1.211,57.726,57.726,0,0,0-4.867-6.067c.446-.423.88-.823,1.337-1.223ZM19.1,63.488c.583.994,1.177,1.988,1.805,2.959a51.739,51.739,0,0,1-5.3-.857,53.374,53.374,0,0,1,1.862-5.084C18,61.512,18.532,62.506,19.1,63.488ZM15.642,49.743c1.645-.366,3.393-.663,5.21-.891-.606.948-1.2,1.919-1.76,2.9s-1.108,1.965-1.622,2.971c-.72-1.7-1.325-3.371-1.828-4.982Zm3.131,7.872c.754-1.577,1.577-3.119,2.445-4.639s1.805-2.993,2.788-4.445c1.714-.126,3.462-.194,5.244-.194s3.542.069,5.244.194q1.457,2.159,2.776,4.422t2.479,4.616q-1.148,2.365-2.468,4.662c-.868,1.52-1.794,2.993-2.765,4.456-1.7.126-3.473.183-5.267.183s-3.53-.057-5.21-.16q-1.491-2.177-2.811-4.456c-.88-1.52-1.691-3.062-2.456-4.639Zm20.635,5.85c.583-1.005,1.131-2.022,1.668-3.051a53.04,53.04,0,0,1,1.931,5.062,50.187,50.187,0,0,1-5.37.914c.617-.96,1.2-1.942,1.771-2.925Zm1.645-8.741c-.537-1.005-1.085-2.011-1.657-2.993s-1.143-1.931-1.748-2.879a52.578,52.578,0,0,1,5.244.914A50.566,50.566,0,0,1,41.052,54.725ZM29.272,41.871a50.173,50.173,0,0,1,3.382,4.09c-2.262-.1-4.536-.1-6.8,0C26.976,44.488,28.13,43.117,29.272,41.871Zm-13.254-7c1.919-1.12,6.181.48,10.671,4.456.286.251.571.526.868.8a58.047,58.047,0,0,0-4.9,6.067,60.227,60.227,0,0,0-7.678,1.188c-.149-.583-.274-1.177-.4-1.771-1.074-5.53-.366-9.7,1.44-10.74Zm-2.8,30.118c-.48-.137-.948-.286-1.417-.446a23.3,23.3,0,0,1-7.2-3.565,5.127,5.127,0,0,1-2.148-3.416c0-2.091,3.61-4.764,8.821-6.581.651-.229,1.314-.434,1.977-.628a60.755,60.755,0,0,0,2.8,7.267A62.455,62.455,0,0,0,13.219,64.985Zm13.322,11.2A20.912,20.912,0,0,1,20.1,80.215a5.057,5.057,0,0,1-4.033.149c-1.817-1.051-2.571-5.084-1.542-10.511.126-.64.263-1.28.423-1.908a57.158,57.158,0,0,0,7.758,1.12,60.294,60.294,0,0,0,4.936,6.1c-.366.354-.731.7-1.1,1.017Zm2.8-2.776c-1.165-1.257-2.331-2.651-3.462-4.147,1.1.046,2.228.069,3.371.069,1.177,0,2.331-.023,3.473-.08A49.271,49.271,0,0,1,29.341,73.406Zm14.933,3.428a5.078,5.078,0,0,1-1.885,3.576c-1.817,1.051-5.69-.32-9.872-3.908-.48-.411-.96-.857-1.451-1.314a56.52,56.52,0,0,0,4.822-6.124,56.322,56.322,0,0,0,7.792-1.2c.114.468.217.937.308,1.394a20.828,20.828,0,0,1,.286,7.575Zm2.079-12.282c-.32.1-.64.206-.971.3a58.041,58.041,0,0,0-2.914-7.289,57.753,57.753,0,0,0,2.8-7.187c.594.171,1.165.354,1.714.537,5.324,1.828,9.06,4.547,9.06,6.627C56.042,59.775,52.055,62.666,46.353,64.551Zm-17.1-1.714A5.233,5.233,0,1,0,24.016,57.6,5.232,5.232,0,0,0,29.249,62.837Z" transform="translate(90.613 -26.187)" fill="#e2e2e2"/>
      <g id="_282804_on_ruby_rails_icon" data-name="282804_on_ruby_rails_icon" transform="translate(249.951 0.909)">
        <g id="layer7" transform="translate(2.57 47.205)">
          <path id="path3993" d="M286.594,555.5v9.809h2.5v-2.555l2.277,2.277h3.839l-3.045-3.045s2.19-.036,2.356-3.2c0-2.907-2.193-3.283-4.726-3.283Zm2.621,2.661h2.158v1.747h-2.158Z" transform="translate(-286.594 -555.5)" fill="#e2e2e2"/>
          <path id="path3997" d="M313.895,555.594c-1.37-.008-3.27.119-3.27,2.7v6.818h2.568v-1.668h2.489v1.628h2.581v-7.148c0-2.242-2.491-2.33-3.826-2.33C314.271,555.594,314.091,555.595,313.895,555.594Zm-.662,2.462h2.41v2.687h-2.41Z" transform="translate(-300.445 -555.554)" fill="#e2e2e2"/>
          <rect id="rect4001" width="2.657" height="9.384" transform="translate(20.391 0.046)" fill="#e2e2e2"/>
          <path id="path4003" d="M347.571,555.847v9.384h6.394v-2.491h-3.778v-6.934Z" transform="translate(-321.74 -555.676)" fill="#e2e2e2"/>
          <path id="path4005" d="M372.887,555.649v2.533H368.61v.913h1.827c.954,0,2.948-.042,2.948,2.948s-1.37,3.155-4.152,3.155H365.87v-2.284h3.861c1.162,0,1.227-.379,1.227-.708s-.594-.483-1.8-.483-3.451-.594-3.451-2.919,1.162-3.2,3.488-3.2,3.7.042,3.7.042Z" transform="translate(-332.192 -555.562)" fill="#e2e2e2"/>
        </g>
        <g id="layer6" transform="translate(0 0)">
          <path id="path3966" d="M291.931,492.029h22.09s-4.9-11.128-3.654-21.342,9.3-14.865,13.868-15.363a8.457,8.457,0,0,1,7.059,2.325l1-1.495s-6.561-6.643-14.865-5.9-14.034,6.228-17.6,12.872-5.647,11.294-7.059,18.27S291.931,492.029,291.931,492.029Z" transform="translate(-287.032 -447.601)" fill="#e2e2e2"/>
          <path id="path3968" d="M281.025,522.675l4.318.332-.748,4.318-4.069-.5Z" transform="translate(-280.527 -489.375)" fill="#e2e2e2"/>
          <path id="path3970" d="M292.468,494.67l1.163-3.238-3.82-1.495-1.245,3.488Z" transform="translate(-285.16 -470.505)" fill="#e2e2e2"/>
          <path id="path3972" d="M306.452,468.628l2.242-2.657-2.906-1.91-2.325,2.574Z" transform="translate(-293.747 -455.591)" fill="#e2e2e2"/>
          <path id="path3974" d="M324.438,448.613l1.993,2.408,2.74-1.578-1.993-2.242Z" transform="translate(-305.837 -445.873)" fill="#e2e2e2"/>
          <path id="path3976" d="M347.375,444.065l.5,2.409,3.4-.083-.333-2.159Z" transform="translate(-319.057 -444.065)" fill="#e2e2e2"/>
          <path id="path3978" d="M374.511,450.142l-.083,1.495,2.325,1.245.5-.747Z" transform="translate(-334.65 -447.568)" fill="#e2e2e2"/>
          <path id="path3980" d="M373.447,465.237v1.245l2.242.249v-1Z" transform="translate(-334.085 -456.268)" fill="#e2e2e2"/>
          <path id="path3982" d="M356.589,466.994l1.079,1.993,1.578-1.245-.332-1.329Z" transform="translate(-324.368 -456.946)" fill="#e2e2e2"/>
          <path id="path3984" d="M346.177,473.863l1.661,2.491-1,1.744-2.408-2.657Z" transform="translate(-317.362 -461.24)" fill="#e2e2e2"/>
          <path id="path3986" d="M339.241,490.133l-1.08,2.159,2.823,2.409.664-2.741Z" transform="translate(-313.747 -470.618)" fill="#e2e2e2"/>
          <path id="path3988" d="M337.739,507.972l-.166,2.906,3.488,1.5-.166-2.741Z" transform="translate(-313.408 -480.9)" fill="#e2e2e2"/>
          <path id="path3990" d="M340.317,532.281l.831,2.99,4.4.249-1.578-3.239Z" transform="translate(-314.989 -494.912)" fill="#e2e2e2"/>
        </g>
      </g>
      <g id="Page-1" transform="translate(383.847 7.967)">
        <g id="icon-77-document-file-css" transform="translate(0 0)">
          <path id="document-file-css" d="M37.155,45.555v3.705a3.692,3.692,0,0,1-3.7,3.7H5.7A3.7,3.7,0,0,1,2,49.242V6.714A3.715,3.715,0,0,1,5.716,3H24.2V14.1a3.7,3.7,0,0,0,3.711,3.7h9.24v3.7H20.515a5.556,5.556,0,0,0-5.563,5.548V40.007a5.544,5.544,0,0,0,5.563,5.548ZM26.053,3V14.1a1.853,1.853,0,0,0,1.833,1.856h9.268L26.053,3ZM20.492,23.353a3.7,3.7,0,0,0-3.69,3.686V40.02a3.7,3.7,0,0,0,3.69,3.686H51.966a3.7,3.7,0,0,0,3.69-3.686V27.038a3.7,3.7,0,0,0-3.69-3.686ZM29.754,36.3A3.7,3.7,0,0,1,26.044,40H24.212a3.706,3.706,0,0,1-3.71-3.711V30.765a3.7,3.7,0,0,1,3.71-3.711h1.832a3.706,3.706,0,0,1,3.709,3.7H27.9a1.844,1.844,0,0,0-1.848-1.85H24.2a1.844,1.844,0,0,0-1.848,1.85V36.3a1.844,1.844,0,0,0,1.848,1.85h1.854A1.844,1.844,0,0,0,27.9,36.3Zm5.56-9.251a3.7,3.7,0,1,0-.009,7.4h1.833a1.85,1.85,0,1,1,.019,3.7H35.3a1.858,1.858,0,0,1-1.848-1.842v-.021H31.6V36.3a3.7,3.7,0,0,0,3.71,3.7h1.832a3.7,3.7,0,1,0,.009-7.4H35.322a1.85,1.85,0,1,1-.019-3.7h1.854A1.856,1.856,0,0,1,39,30.754h1.85a3.7,3.7,0,0,0-3.71-3.7Zm11.1,0a3.7,3.7,0,1,0-.009,7.4h1.833a1.85,1.85,0,1,1,.019,3.7H46.4a1.858,1.858,0,0,1-1.848-1.842v-.021h-1.85V36.3a3.7,3.7,0,0,0,3.71,3.7h1.832a3.7,3.7,0,1,0,.009-7.4H46.423a1.85,1.85,0,1,1-.019-3.7h1.854a1.856,1.856,0,0,1,1.848,1.85h1.85a3.7,3.7,0,0,0-3.71-3.7Z" transform="translate(-2 -3)" fill="#e2e2e2" fill-rule="evenodd"/>
        </g>
      </g>
      <g id="comp_x5F_288-sass" transform="translate(461.585)">
        <g id="Group_17" data-name="Group 17" transform="translate(0 0)">
          <path id="Path_82" data-name="Path 82" d="M96.712,118.936a16.835,16.835,0,0,0-7.441,1.732,15.815,15.815,0,0,1-1.668-3.862,10.316,10.316,0,0,1-.141-3.246,27.318,27.318,0,0,1,.975-3.49c-.013-.141-.18-.847-1.835-.86s-3.079.321-3.246.757a15.732,15.732,0,0,0-.68,2.451c-.3,1.5-3.31,6.864-5.017,9.661a9.969,9.969,0,0,1-1.142-2.823,10.31,10.31,0,0,1-.141-3.246,27.326,27.326,0,0,1,.975-3.49c-.013-.141-.18-.847-1.835-.86s-3.079.321-3.246.757-.346,1.463-.68,2.451-4.35,9.917-5.4,12.24c-.539,1.18-1,2.13-1.334,2.771-.051.1-.09.167-.115.218.038-.064.064-.129.064-.1-.282.551-.449.859-.449.859v.013c-.218.411-.462.782-.577.782a5.319,5.319,0,0,1,.039-2.553c.6-3.1,2.027-7.929,2.014-8.1-.013-.09.269-.924-.937-1.373a1.51,1.51,0,0,0-1.693.282c-.1,0-.18.257-.18.257s1.3-5.44-2.489-5.44c-2.361,0-5.645,2.592-7.262,4.94-1.014.552-3.208,1.745-5.517,3.015-.885.488-1.8.988-2.656,1.463-.064-.064-.116-.129-.18-.193-4.593-4.9-13.074-8.365-12.715-14.947.128-2.4.962-8.7,16.307-16.346,12.574-6.261,22.633-4.542,24.365-.719,2.489,5.453-5.376,15.6-18.437,17.064-4.978.552-7.6-1.373-8.25-2.091-.68-.757-.783-.8-1.039-.654-.424.231-.154.9,0,1.3a7.731,7.731,0,0,0,4.722,3.708c2.4.783,8.237,1.219,15.293-1.514,7.929-3.054,14.1-11.56,12.292-18.681-1.847-7.236-13.844-9.61-25.2-5.581-6.762,2.4-14.075,6.172-19.335,11.085-6.248,5.851-7.249,10.944-6.839,13.074,1.463,7.557,11.881,12.484,16.051,16.128-.205.116-.4.218-.577.321-2.091,1.039-10.033,5.2-12.022,9.585-2.245,4.978.372,8.545,2.091,9.032,5.363,1.488,10.854-1.193,13.806-5.594s2.592-10.149,1.232-12.766c-.013-.038-.039-.064-.051-.1.539-.321,1.09-.641,1.642-.962,1.065-.629,2.1-1.206,3.015-1.706a19.92,19.92,0,0,0-1.078,5.466c-.231,2.823.937,6.479,2.451,7.916a2.7,2.7,0,0,0,1.976.642c1.771,0,2.566-1.463,3.451-3.208,1.091-2.13,2.053-4.606,2.053-4.606s-1.206,6.7,2.091,6.7c1.206,0,2.412-1.553,2.951-2.348v.013s.026-.051.09-.154c.128-.193.192-.308.192-.308v-.039c.487-.834,1.553-2.746,3.156-5.9,2.079-4.08,4.067-9.174,4.067-9.174a25.784,25.784,0,0,0,.8,3.311,30.984,30.984,0,0,0,1.719,3.849c-.487.667-.783,1.052-.783,1.052a.04.04,0,0,0,.012.026c-.385.514-.821,1.065-1.27,1.6a45.067,45.067,0,0,0-3.849,4.824A1.31,1.31,0,0,0,69.652,135a3.121,3.121,0,0,0,2.014.321,8.892,8.892,0,0,0,3.015-.693,10.542,10.542,0,0,0,2.592-1.36,5.79,5.79,0,0,0,2.489-5.106,10.624,10.624,0,0,0-.937-3.618c.141-.206.3-.424.436-.642a68.207,68.207,0,0,0,4.5-7.775,25.841,25.841,0,0,0,.8,3.31,22.646,22.646,0,0,0,1.463,3.3,14.1,14.1,0,0,0-4.375,5.658c-.95,2.733-.205,3.964,1.193,4.247a4.307,4.307,0,0,0,2.194-.449,10.185,10.185,0,0,0,2.771-1.424c1.6-1.18,3.156-2.836,3.054-5.081a9.551,9.551,0,0,0-.693-3,15.667,15.667,0,0,1,7.968-.924c7.146.834,8.545,5.3,8.275,7.159a4.709,4.709,0,0,1-2.271,3.208c-.5.308-.654.424-.616.654.064.334.295.321.718.244a5.574,5.574,0,0,0,3.887-4.965c.206-4.362-3.99-9.161-11.418-9.122ZM41.631,137.5c-2.361,2.579-5.671,3.554-7.095,2.733-1.527-.885-.924-4.683,1.989-7.429a38.027,38.027,0,0,1,5.568-4.157c.346-.205.847-.513,1.463-.885.1-.064.154-.09.154-.09.115-.077.244-.141.372-.218A10.238,10.238,0,0,1,41.631,137.5Zm17.244-11.727c-.821,2.014-2.553,7.147-3.605,6.877-.9-.231-1.45-4.144-.18-7.993a17.682,17.682,0,0,1,2.81-5.145c1.3-1.45,2.72-1.912,3.054-1.335.449.757-1.566,6.338-2.079,7.6Zm14.241,6.8c-.346.179-.667.295-.821.2-.115-.064.141-.308.141-.308s1.783-1.912,2.489-2.784c.41-.513.885-1.116,1.4-1.783,0,.064.013.128.013.2C76.325,130.406,74.118,131.959,73.117,132.575Zm10.983-2.5c-.257-.18-.218-.783.641-2.656a10,10,0,0,1,2.438-3.143,4.636,4.636,0,0,1,.244,1.385,4.524,4.524,0,0,1-3.323,4.414Z" transform="translate(-26.001 -83.535)" fill="#e2e2e2"/>
        </g>
      </g>
    </g>
    <text id="_" data-name="{" transform="translate(1329 1563) rotate(180)" fill="#e2e2e2" font-size="75" font-family="NewAthenaUnicode, New Athena Unicode"><tspan x="0" y="0">{</tspan></text>
    <text id="_2" data-name="{" transform="translate(683 1596)" fill="#e2e2e2" font-size="75" font-family="NewAthenaUnicode, New Athena Unicode"><tspan x="0" y="0">{</tspan></text>
  </g>
</svg>
